/* XPM */
static char *ada9a1e53b7d4c2ef1c1ae7a1e93602dC38cq4w95Y859rOj[] = {
/* columns rows colors chars-per-pixel */
"48 48 156 2 ",
"   c #060500",
".  c #060C04",
"X  c #0B0D03",
"o  c #140D01",
"O  c #051407",
"+  c #0B1205",
"@  c #061709",
"#  c #0C1708",
"$  c #0F1E0A",
"%  c #131706",
"&  c #181605",
"*  c #131A07",
"=  c #1B1A07",
"-  c #141E0A",
";  c #1B1E08",
":  c #0B230D",
">  c #0A290E",
",  c #12230C",
"<  c #1D230A",
"1  c #132A0F",
"2  c #0E2D11",
"3  c #122D11",
"4  c #123515",
"5  c #193413",
"6  c #183814",
"7  c #133E18",
"8  c #21270B",
"9  c #28270A",
"0  c #242B0C",
"q  c #2A2D0C",
"w  c #2C330E",
"e  c #32340E",
"r  c #373A0F",
"t  c #233511",
"y  c #2B3610",
"u  c #253C14",
"i  c #2F3A11",
"p  c #343C11",
"a  c #3A3D11",
"s  c #17461A",
"d  c #19451C",
"f  c #12491C",
"g  c #1C4C1C",
"h  c #1D501F",
"j  c #254619",
"k  c #214C1F",
"l  c #334013",
"z  c #3C4414",
"x  c #194920",
"c  c #1C5421",
"v  c #1F5A23",
"b  c #205521",
"n  c #215C23",
"m  c #246226",
"M  c #296527",
"N  c #266F27",
"B  c #266828",
"V  c #2E6C2E",
"C  c #2B742D",
"Z  c #2B7A2D",
"A  c #31762D",
"S  c #414714",
"D  c #444C16",
"F  c #494F16",
"G  c #4C5217",
"H  c #445018",
"J  c #4C5519",
"K  c #4F5A1B",
"L  c #535B1A",
"P  c #55641D",
"I  c #5B671E",
"U  c #626D1F",
"Y  c #5E6F21",
"T  c #647221",
"R  c #6B7622",
"E  c #677824",
"W  c #6C7D26",
"Q  c #727E24",
"!  c #328333",
"~  c #358D34",
"^  c #359434",
"/  c #37943A",
"(  c #389539",
")  c #3C9B3C",
"_  c #3EA13E",
"`  c #409C3D",
"'  c #6F8027",
"]  c #6F8128",
"[  c #718227",
"{  c #728428",
"}  c #768929",
"|  c #798C2A",
" . c #7E922C",
".. c #40A13D",
"X. c #449D41",
"o. c #46A443",
"O. c #48A544",
"+. c #45AA43",
"@. c #49AD45",
"#. c #4EAE49",
"$. c #51AA4D",
"%. c #47B244",
"&. c #4AB446",
"*. c #4AB947",
"=. c #4DB549",
"-. c #4BBA48",
";. c #52B24E",
":. c #52BD4E",
">. c #53BD50",
",. c #4CC447",
"<. c #4DCB47",
"1. c #4EC24A",
"2. c #4ECD48",
"3. c #51C54C",
"4. c #52C94D",
"5. c #4FD048",
"6. c #52D24C",
"7. c #56DD4D",
"8. c #56CF51",
"9. c #56D051",
"0. c #81962D",
"q. c #83982D",
"w. c #869B2F",
"e. c #859C2F",
"r. c #879D2F",
"t. c #899E2F",
"y. c #869D30",
"u. c #889F30",
"i. c #8BA230",
"p. c #8CA331",
"a. c #8DA331",
"s. c #8DA431",
"d. c #8DA532",
"f. c #8EA733",
"g. c #8EA833",
"h. c #8FA833",
"j. c #90A732",
"k. c #92A933",
"l. c #92AA33",
"z. c #94AB33",
"x. c #94AB34",
"c. c #93AC34",
"v. c #95AE34",
"b. c #96AF35",
"n. c #95B035",
"m. c #99B236",
"M. c #9AB336",
"N. c #9BB436",
"B. c #9DB737",
"V. c #9EB938",
"C. c #A1BB38",
"Z. c #A2BD39",
"A. c #A7C23B",
"S. c #A7C43C",
"D. c #ABC73C",
"F. c #B1CE3F",
/* pixels */
"*.*.O.O.O.@.@.O.#.*.*.*.-.,.,.*.*.*.*.*.*.-.%.@.@.@.%.%.&.*.-.*.*.*.=.*.,.,.<.-.*.-.*.,.,.,.-.*.",
"*.*.@.O.O.@.*.*.*.*.*.*.,.2.5.,.*.*.*.*.-.*.*.*.=.%.O.O.O.%.-.*.*.*.-.*.*.*.*.*.*.-.*.*.*.*.-.*.",
"*.*.O.O.O.@.*.*.*.-.*.*.<.4.5.,.*.*.*.*.*.*.-.1.-.*.o.O.O.&.-.*.*.-.*.-.-.-.-.*.-.-.-.-.-.-.-.-.",
"*.*.O.O.O.%.*.-.*.*.*.*.,.2.2.,.*.-.*.*.*.4.-./ _ 3.#.o.O.&.=.*.*.*.-.*.-.-.*.*.*.*.*.*.-.*.*.*.",
"*.*.*.*.*.*.*.*.*.*.*.*.*.-.*.*.*.-.-.-.*.C 1 H w s ( *.*.*.*.-.*.*.*.*.*.*.*.#.O.O.@.*.-.*.*.*.",
"=.*.*.*.*.-.*.*.*.*.*.*.*.*.*.*.-.*.-.+.j q T Z.f.D q A -.*.*.-.-.*.=.-.-.*.*.%.O.O.O.*.=.*.*.*.",
"*.*.*.*.*.*.-.-.*.=.*.*.*.*.*.*.*.*.3.Z 8 i.r.m.i.f.T 3 *.-.*.*.*.*.*.*.*.-.*.@.O.O.O.*.-.*.*.*.",
"%.@.*.-.*.*.@.@.&.*.*.*.*.=.&.&.*.*.1.C w a.l.m.l.v.T 6 *.-.*.-.*.@.%.@.*.-.=.%.@.@.@.%.@.%.%.#.",
"O.O.*.*.*.%.O.O.O.*.-.*.&.&.@.&.*.*.-.` - { c.]  .n.a v 4.&.-.-.%.O.O.O.*.=.*.*.-.-.*.O.O.O.O.O.",
"O.O.*.=.*.@.O.O.O.-.-.*.&.&.&.&.*.*.*.O.> ] c.| 0.m.i N 4.*.*.-.%.O.O.O.*.*.*.*.-.*.*.O.O.O.O.O.",
"@.O.*.*.*.@.O.@.O.*.-.*.&.@.@.@.=.*.%.:.M w  .V.l.T - *.,.*.*.*.@.O.O.@.*.*.*.*.*.-.*.+.O.O.+.O.",
"*.*.*.*.*.*.*.-.*.*.*.*.1.4.4.4.-.-.3...4 X = < ; % . Z 2.1.-.1.4.4.3.-.*.*.*.*.-.*.*.-.-.-.*.*.",
"-.-.*.*.*.-.-.-.-.*.-.4.! g c c ) *.n < W a.y.0.e.t.a.D 2 ) *.C g c n %.3.-.*.-.-.-.-.-.-.-.-.-.",
"*.*.*.*.*.*.-.-.*.-.( c * e P e , : p x.B.} } } } { 0.A.R , > = a F & 6 B %.*.*.*.*.-.&.*.*.*.*.",
"-.-.*.*.*.&.O.O.=.) * L l.f. .S.H & B.V. .W ] Q [ Q W j.A.W   e.x.Z.f.Q e d =.@.-.*.*.<.<.<.*.*.",
"-.-.*.*.-.@.O.O.O.4 D u.r.0.l.J p f.{  .M.{ ] { { W y.v.W e.{ 8 0.} y. .y.- V *.*.-.-.<.2.<.,.*.",
"-.-.*.=.-.O.O.;.s q  .y.a.e.{ 8 e.| W [ B.0.W { { ' v.e.W W j.P w  . .f.i.{   ` -.*.*.2.2.<.-.*.",
"-.*.*.-.*.&.-.! +  .c.q.q.a.8 } 0.W { W r.f.R ] W } m.} [ { W l.z K c.v.0.c.D 4 1.*.*.,.,.,.-.-.",
"-.-.*.*.*.*.,.4 L c.d. .Q L w f.W ] { W  .V.f.f.i.n.v.Q Q { W 0.R y } | u.j.a.< ! 3.*.*.*.*.*.*.",
"-.-.*.*.*.,.) + E i.c.Y u @ z V.l.} W 0.m.a. .0.0.0.n.l.{ W y.m.e.+ 3 i } a.l.e 7 3.*.*.-.-.*.*.",
"-.-.*.-.&.4.m e f.} 0.= ) b R a.0.f.0.B.| { W ] W W { j.v.0.x.} v.r _ s G 0.e.[ $ %.-.*.-.*.*.&.",
"-.*.*.*.*.4.m p y.e.J + *.b R u.E e.B.| W [ { { { { { W j.b.{ W x.w _ m o [ 0.[ , %.-.*.-.*.@.O.",
"*.-.-.-.&.4.m z e.E O ~ 6.h R e.W } l.W { [ ] { { { { W 0.a.W { l.i ) -.7 w  .R , %.-.-.-.*.@.O.",
"-.*.*.*.*.4.v z f.w g 7.4.h R i.W } l.[ [ { { ] } W { W 0.j.W { l.i / 4._ + E 0.- @.-.-.-.*.@.O.",
"-.*.,.,.,.<.! 0 D # %.-.4.c R i.W } c.] { { { W { W { W 0.f.W W c.i / ,.&.n & J 4 -.*.*.*.*.*.@.",
"-.*.2.5.5.,.4.M 3 ~ -.&.3.b T u.R | c.] ] { { { { { { W e.l.W { l.i ) -.O.O.k , +.-.*.-.-.*.*.-.",
"-.*.2.4.5.,.*.%.*.1.*.*.3.( p i.] h.m.p.W ] { { { { W } n.c. .| [ j :.&.O.O.#.O.-.*.-.*.*.*.*.*.",
"-.*.,.,.<.*.*.-.-.@.%.@.&.) y m.M.0.W M.c.} W { W W u.M.y.Q x.V.Q g 1.*.@.@.O.%.*.-.-.-.-.=.*.*.",
"-.*.*.*.*.*.*.*.*.O.O.O.-./ i b. .{ W { p.B.c.j.j.c.M. .Q { { c.[ d 3.%.-.*.*.*.*.-.*.*.*.*.*.*.",
"*.-.-.-.-.-.*.-.*.O.O.O.-.O.t 0.{ { { W | M.| | | y.M.W { { R 0.Y n 3.*.*.-.-.-.-.*.-.-.*.=.-.-.",
"*.*.-.*.*.*.*.-.%.O.O.O.%.3.m Y d.W { Q c.u.R ] Q { N. .] W | p.u _ -.*.*.*.*.*.*.-.*.*.*.*.*.*.",
"*.*.O.O.O.@.-.*.*.-.-.-.-.=.-.4 T p.W { V.| ] { { W j.d.E { M.q C 1.*.-.*.*.-.-.-.-.-.*.*.*.@.O.",
"*.*.O.O.O.#.*.*.*.*.*.*.*.*.-._ 5 U a.e.a.[ [ [ [ ] } x.e.t.r x =.*.-.*.*.-.-.-.-.-.-.*.=.*.@.O.",
"*.*.O.O.O.%.*.*.*.*.=.*.-.-.*.3...1  .F.t.W ] [ [ W { Z.D.D d =.@.*.*.*.-.-.-.-.-.-.-.*.*.*.@.O.",
"*.*.@.@.%.@.@.#.%.*.*.*.*.*.*.*.<.` + z } l.} ] ' q.f.I ; 6 :.@.@.*.*.*.*.*.-.*.*.-.*.*.-.*.@.@.",
"*.*.*.*.-.@.O.O.O.*.-.*.*.*.*.*.-.) , P % w l.l.m.W + z a s 1.*.-.*.*.*.-.-.*.-.-.*.*.*.-.*.*.*.",
"-.-.*.*.*.@.O.O.O.*.-.-.*.*.*.*.3.7 z V.N.P < e < z } t. .X ^ 1.-.-.=.-.*.*.-.-.*.-.-.*.-.-.-.*.",
"*.*.*.*.-.@.O.O.O.*.-.*.*.*.*.-.) + 0.i.c.i.r f : | n. .C.G 7 4.%.*.*.%.*.*.-.*.*.-.*.*.*.,.-.*.",
"*.*.*.*.-.@.O.O.+.*.-.*.*.*.-.=.4 J g.B.u.K > 7.~ * v.n.n.a.= / =.O.O.O.*.*.*.=.*.-.*.2.2.2.*.*.",
"-.-.-.*.-.%.O.O.O.*.-.*.*.-.-.+., r.' c.V.9 C 7.2.: W u.a.B.D h 3.O.O.O.*.*.*.*.*.-.*.2.2.2.*.*.",
"*.*.*.*.-.@.O.O.@.*.-.*.*.*.-.+.- | m.V.J 2 <.<.2./ X a.l.u.a n :.O.O.O.*.*.-.*.*.-.*.<.2.2.,.*.",
"*.*.,.<.2.-.%.&.&.*.*.*.*.*.-.-.M # D S # ( 1.*.*.4.g < L 8 3 ) =.O.O.@.*.*.-.*.*.-.*.-.,.*.*.*.",
"-.*.<.2.2.1.*.-.=.-.*.-.*.-.-.-.1._ b x ) -.-.-.*.*.-.C s Z &.,.%.O.O.O.*.*.*.-.-.-.*.*.*.*.*.*.",
"-.*.<.2.2.,.*.-.-.-.-.*.-.*.-.*.*.-.4.4.1.*.-.-.-.*.-.1.4.1.-.*.@.O.X.o.*.*.*.*.*.-.-.*.-.*.-.-.",
"*.-.<.2.2.,.*.-.-.-.*.*.*.*.*.*.*.*.%.@.@.@.*.*.*.-.*.*.&.*.*.*.*.*.*.*.,.,.,.*.*.-.*.*.-.*.%.@.",
"-.*.2.2.2.,.*.-.-.-.*.*.-.-.-.*.*.*.*.O.O.O.@.*.*.-.-.-.-.-.-.-.,.2.2.2.2.2.2.,.*.-.-.-.-.-.+.O.",
"*.*.<.<.2.,.-.-.*.*.*.*.*.*.*.&.*.*.*.o.O.o.@.*.*.*.*.*.*.*.-.-.,.2.2.<.2.<.2.*.&.*.*.*.*.-.+.O.",
"-.>.9.9.9.3.>.>.>.-.>.>.>.>.>.>.>.>.:.$.$.$.;.>.:.>.>.:.>.>.>.>.3.9.8.8.9.9.9.4.>.>.>.>.>.>.$.$."
};
