/* XPM */
static char *_4d8f06a539041cf9a959fe6e8a29eafLzCNJvshOWG2em7c[] = {
/* columns rows colors chars-per-pixel */
"48 48 120 2 ",
"   c #467F39",
".  c #497E39",
"X  c #4D853B",
"o  c #478D3C",
"O  c #4C8B3C",
"+  c #50863C",
"@  c #528B3C",
"#  c #46943E",
"$  c #4A953E",
"%  c #469B3F",
"&  c #56913D",
"*  c #59953E",
"=  c #51993E",
"-  c #5D9B3F",
";  c #609D3E",
":  c #64A33E",
">  c #68A43F",
",  c #6DAA3E",
"<  c #70AE3F",
"1  c #70B43E",
"2  c #479E41",
"3  c #4A9D40",
"4  c #5B9640",
"5  c #5E9D40",
"6  c #639D41",
"7  c #47A443",
"8  c #48A544",
"9  c #47AB44",
"0  c #49AD45",
"q  c #51AA4D",
"w  c #4AB446",
"e  c #4AB947",
"r  c #4BBA48",
"t  c #50B044",
"y  c #52B24E",
"u  c #53BC4F",
"i  c #53BD50",
"p  c #62A241",
"a  c #6AA442",
"s  c #66A841",
"d  c #6AAB41",
"f  c #72AE47",
"g  c #74A54B",
"h  c #72AC4A",
"j  c #6CB042",
"k  c #72B441",
"l  c #74B741",
"z  c #75B642",
"x  c #75B843",
"c  c #7ABB41",
"v  c #7BB942",
"b  c #7ABB42",
"n  c #78B845",
"m  c #7CB44A",
"M  c #4BC047",
"N  c #4CC247",
"B  c #4CC347",
"V  c #4CC447",
"C  c #4CC547",
"Z  c #4CC647",
"A  c #4CC747",
"S  c #4DC947",
"D  c #4DCB47",
"F  c #4ECC48",
"G  c #4FCC49",
"H  c #4DCF48",
"J  c #4ECE48",
"K  c #4FCE49",
"L  c #54C54F",
"P  c #4FD048",
"I  c #4FD049",
"U  c #56CF51",
"Y  c #56D051",
"T  c #83BA44",
"R  c #83BE44",
"E  c #83B54F",
"W  c #84BD4A",
"Q  c #82B655",
"!  c #87B958",
"~  c #8FBC58",
"^  c #86C046",
"/  c #8CC446",
"(  c #87C04B",
")  c #8CC349",
"_  c #8FC649",
"`  c #8AC24E",
"'  c #90C747",
"]  c #91C945",
"[  c #92C64B",
"{  c #95C94B",
"}  c #9ACA4F",
"|  c #8DC250",
" . c #8EC454",
".. c #95C459",
"X. c #97C75A",
"o. c #9EC666",
"O. c #9ECA64",
"+. c #A1C965",
"@. c #A5CD66",
"#. c #A1C66F",
"$. c #A8CE69",
"%. c #AAD067",
"&. c #AAD068",
"*. c #ADD16C",
"=. c #AED271",
"-. c #B4D573",
";. c #B5D575",
":. c #B8D676",
">. c #B8D779",
",. c #BAD878",
"<. c #BBD87C",
"1. c #BDD97E",
"2. c #BFDA80",
"3. c #BFD982",
"4. c #C0DB80",
"5. c #C2DC85",
"6. c #C3DC87",
"7. c #C5DD87",
"8. c #C5DD8B",
"9. c #C7DD8E",
/* pixels */
"e e 8 8 8 9 0 9 0 e r e r N r r r r r e e r w 9 0 0 w w 0 e e e e e r e V V V M e r e V V V r r ",
"e e 9 8 8 0 r r e e r e A K F A r r e e r e e e e e 8 8 8 w e e e e r e e e e r e r e e e e r r ",
"e e 8 8 8 0 r r r r e e A K K A e r e r e r r r e e 8 8 8 w e e e e e e r r r r r r r r r r r r ",
"e e 8 8 8 0 e r e e r e A K D N e r e r r r r r r e 8 8 8 w e e e e e e e r e e e r w e r e e e ",
"e e e e e e e e e e e e r r r r e r e e e e e t r w e e w e e e e e e e e r e w 8 8 8 r r e e e ",
"w e e e r r e e e e e e r e r r r e e e e e e e e r r r e r e r r e e e r e r 0 8 8 0 e r r e e ",
"r r e e e e r e e e e e r e e t e e e e e e e e r e e w e e r e e r r e e r r 0 8 8 0 r e r r r ",
"w 0 e r e e 0 0 0 e e e e e w e e r e w 0 0 e e e r r r e r e e e 0 0 0 r r e w 0 0 0 0 0 0 w 0 ",
"8 8 e e e 0 8 8 8 e e e w 0 w w e e w 8 8 7 0 r e r e e e e e r w 8 8 8 w r r r r r w 8 8 8 8 8 ",
"8 8 e e e w 8 8 9 e e e w w w w e e e 8 8 8 w r e e e e e e r r w 8 8 8 w r r r r r w 8 8 8 8 8 ",
"9 8 e e r 0 8 9 8 e e e w w 0 e e e e 9 9 8 0 e e e r r r r e r w 8 0 0 e e r w r r w 0 8 8 9 0 ",
"r w e e r r r r r e e e e e e e e e e w e e e e r e F G K r e r e r w e e e r r r r r e r r r e ",
"r r r e r r r r r r r r r r r r e e r N e e e e e r K J P r r r e e e r r r r r r r r r e e e e ",
"e e e r e e r r e r r w r r e e w 2 3 2 0 e e e r r K P K N e e e e e e e e e r e r e e e e e e ",
"r r e e e w 8 8 0 e r e e r r 7   X 4 . @ O $ % 8 w r r r 0 9 9 0 e e e 0 9 9 0 e r r D J D r e ",
"r r e e r 0 8 8 8 e r e e r 2 + 4 4 X 4 & @ - @ . o w r r 0 8 8 0 e e e 8 8 8 0 e e e K K P r r ",
"e u e r e 9 7 8 9 e e e r 7 X * 4 4 4 . X O + X + & $ 9 7 2 # 2 0 e e e 8 8 8 0 e e r K K K r r ",
"e r e r e e 0 w 0 e r e r # X 5 X . 4 . & p & & : - O   X + + @ 2 e e e 0 0 0 e e e e N A N r r ",
"e e e e e e r r e e e r 9 X + X X * @ + * p p 5 > p 5 & O + & & X 3 e w e r r r e e e e r e w e ",
"e e e e e e e e e e e M 7 @ @ X d c c > @ - p p > = : s + . X + + X 3 r r e r e e e e e r r r e ",
"r r e r r e e e e e e r t * O ; l c b n a Q o.O...! f : - - & X X 4 . w r e r r e r r e r e w e ",
"r e e e e e e e e D D P 0 & + , l l l W %.1.2.<.7.>.$.h @ p 5 * . 4 X 0 r e e w r e e e e e 0 8 ",
"e r r r r r r r e K K K 0 X @ s c k n =.6.2.;.4.:.;.>.` - @ p & X 4 X w r e r r r e r e r e 0 8 ",
"r e e e r r r r r D K D N # X d k 1  .6.9.6.<.6.1.4.@._ T & : & . . 2 e e e e e e r r e r w 0 8 ",
"r e V V V M e e e r N N e O . d k : ~ 7.<.4.9.2.:.*.` ) { 6 6 * O X 0 e 0 0 0 w e r e e r w w w ",
"r e J K J V e e e e e e 3 X X ; x : g 1.;.:.9.-.O.W R ' { a * X X O w e 8 8 8 0 e r r e r r r r ",
"r e K K K N e e e r r r $ @ X * x d : +.4.-.6.%.W / [ { } a p @ 4 o e e 0 8 8 0 e r e r r r e e ",
"r e V V D r e r e w w e $ + & + d k , m -.6.8.+.R { / ] { ; @ X X 2 e e 0 0 0 0 e r e e r e e e ",
"r e e e e e e r e 7 7 8 7 X @ X * > d k n #.9.X.' / [ ] v X X X o e r e e e e e e r e e e e e e ",
"e r r r r r r r e 8 8 7 w $ & @ + @ - > 1 f Q n W T / R a 6 X O 9 r w r r r r r r e r r e e e r ",
"r e e e e e e r w 8 8 7 w w O X * @ O X , x , , k a & * 5 5 X 0 r r r e e e e e r r e w e e e e ",
"e e 8 8 8 0 e e e e e e e e e # @ + @ . @ - - : : * X & p & # 9 0 e r e r r r r r r r r e e 9 8 ",
"r e 8 8 8 0 r r e r e e r e r w 2 2 7 % O : * - p q : ; @ $ 9 8 9 r r e r r r r r r r e r r 0 8 ",
"e e 8 8 8 0 e e e e e e e e e r M r e 8 7 O & - - p > & 0 9 8 8 9 r r e r y r r r r r e r e 8 8 ",
"e e 0 0 0 w w 0 w e r e e e r e e w e 0 0 0 9 w 0 w 0 9 0 0 w 0 0 e r e e e r e r r e e r e w 0 ",
"e e e e r 0 8 8 8 e r e e e r e e e e r e r r r e e 8 7 8 e e e r e e e r r e r r e e e r e e e ",
"r r e e e 0 8 8 8 e r e t r r r r r r r r r e e e e 8 8 8 e r r r r r r e e e e e r r r r r r r ",
"e e e e r 0 8 8 8 e r e r r r r w w r r e e e e e e 8 8 8 w r e e e w e e e e e r r e r r r r e ",
"e e e r r 0 8 8 9 e r e r w r w 8 8 9 w r w M P K F e e e e e r 0 8 8 8 e e e e e r r F D K M e ",
"r r r r r w 8 8 0 w r e r e r w 8 8 7 e r r V K J D e e e e e e w 8 8 8 e e e e e r r D K P r e ",
"e e e e r 0 8 7 8 e r e e w r w 7 9 8 e r w A P F F e r e e r r w 8 8 8 e e e e e r e K D P N e ",
"e e V D P r w w w r r e e r r w w w w r r r r e r r e r e r r r w 8 8 9 e e e e r e e r N e e e ",
"r e D K P V e e r e e e r r r r r r r r r e r r r r e e e e e r w 8 8 8 e e e e e r e e e e e e ",
"e e D H K V e e e e r e r e r r e r r r r r r e r r e e e e e r 0 2 8 7 w w e e r e r r e e e e ",
"r e H K J M e e e e e e r r r r r e e 0 0 w w r r e e e e e r e r e e e M M V M e e e e e e w w ",
"e e F F K V e e e e e e r r r r r e e 7 9 7 0 r e e r r e r e w V P K K K D P V e e e e e r 8 8 ",
"e r F S K M e e e e e e e e e e e e w 7 7 8 9 r r r e r r e e e r K K F J D K M w r e e e e 7 7 ",
"r i U U U L i i i i i i i i i i i i i q q q y i u i i u i i i i L Y U U Y Y Y L i i i i u u y q "
};
