/* XPM */
static char *result[] = {
/* columns rows colors chars-per-pixel */
"48 48 54 1 ",
"  c #57983F",
". c #59993E",
"X c #58983F",
"o c #58993F",
"O c #59993F",
"+ c #599A3F",
"@ c #5B9B3E",
"# c #5A9A3F",
"$ c #5C9B3E",
"% c #5C9C3E",
"& c #5D9C3E",
"* c #5D9D3E",
"= c #5E9D3E",
"- c #5E9E3E",
"; c #5F9E3E",
": c #609F3D",
"> c #60A03D",
", c #61A03D",
"< c #62A23D",
"1 c #63A23D",
"2 c #60A03E",
"3 c #61A03E",
"4 c #62A13E",
"5 c #63A23E",
"6 c #64A23D",
"7 c #64A33D",
"8 c #65A33E",
"9 c #65A43D",
"0 c #66A53D",
"q c #67A53D",
"w c #67A63D",
"e c #65A43E",
"r c #65A53E",
"t c #69A73D",
"y c #69A83D",
"u c #6AA83D",
"i c #6BA93D",
"p c #6BAA3D",
"a c #6CAA3D",
"s c #6CAB3D",
"d c #6DAB3D",
"f c #6EAC3C",
"g c #6FAD3C",
"h c #6EAC3D",
"j c #6FAC3D",
"k c #6FAD3D",
"l c #6FAE3D",
"z c #6FAD3E",
"x c #6FAE3E",
"c c #70AE3D",
"v c #71AE3D",
"b c #70AD3E",
"n c #70AE3E",
"m c #70AE3F",
/* pixels */
"mmmmmmmmmmmmmmmmmmmmmmmmmmmmmmmmmmmmmmmmmmmmmmmm",
"llllllllllllllllllllllllllllllllllllllllllllllll",
"nnnnnnnnnnnnnnnnnnnnnnnnnnnnnnnnnnnnnnnnnnnnnnnn",
"nnnnnnnnnnnnnnnnnnnnnnnnnnnnnnnnnnnnnnnnnnnnnnnn",
"nnnnnnnnnnnnnnnnnnnnnnnnnnnnnnnnnnnnnnnnknkkkkkk",
"nnnnnnnnnnnnnnnnnnnnnnnnnnnnnnnnnnnnnnnnnknnzznc",
"nnnnnnnnnnnnnnnnnnnnnnnnnnnnnnnnnnnnnnnnkczkcckz",
"nnnnnnnnnnnnnnnnnnnnnnnnnnnnnnnnnnnnnnnnknkfwwfk",
"nnnnnnnnnnnnnnnnnnnnnnnnnnnnnnnnnnnnnnnnkzc7XX0c",
"nnnnnnnnnnnnnnnnnnnnnnnnnnnnnnnnnnnnnnnnkzc:OO<c",
"nnnnnnnnnnnnnnnnnnnnnnnnnnnnnnnnnnnnnnnnkzc,##1c",
"nnnnnnnnnnnnnnnnnnnnnnnnnnnnnnnnnnnnnnnnkzc>##1c",
"nnnnnnnnnnnnnnnnnnnnnnnnnnnnnnnnnnnnnnnnkzc2Oo5c",
"nnnnnnnnnnnnnnnnnnnnnnnnnnnnnnnnnnnnnnnnkzcy$%uk",
"nnnnnnnnnnnnnnnnnnnnnnnnnnnnnnnnnnnnnnnnknkkhhkk",
"nnnnnnnnnnnnnnnnnnnnnnnnnnnnnnnnnnnnnnnnznzkcckn",
"nnnnnnnnnnnnnnnnnnnnnnnnnnnnnnnnnnnnnnnnnzcnzznk",
"nnnnnnnnnnnnnnnnnnnnnnnnnnnnnnnnnnnnnnnnknkkkkkk",
"nnnnnnnnnnnnnnnnnnnnnnnnnnnnnnnnnnnnnnnnnnnnnnnn",
"nnnnnnnnnnnnnnnnnnnnnnnnnnnnnnnnnnnnnnnnnnnnnnnn",
"nnnnnnnnnnnnnnnnnnnnnnnnnnnnnnnnnnnnnnnnnnnnnnnn",
"nnnnnnnnnnnnnnnnnnnnnnnnnnnnnnnnnnnnnnnnnnnnnnnn",
"nnnnnnnnnnnnnnnnnnnnnnnnnnnnnnnnnnnnnnnnnnnnnnnn",
"nnnnnnnnnnnnnnnnnnnnnnnnnnnnnnnnnnnnnnnnnnnnnnnn",
"nnnnnnnnnnnnnnnnnnnnnnnnnnnnnnnnnnnnnnnnnnnnnnnn",
"nnnnnnnnnnnnnnnnnnnnnnnnnnnnnnnnnnnnnnnnnnnnnnnn",
"nnnnnnnnnnnnnnnnnnnnnnnnnnnnnnnnnnnnnnnnnnnnnnnn",
"nnnnnnnnnnnnnnnnnnnnnnnnnnnnnnnnnnnnnnnnnnnnnnnn",
"nnnnnnnnnnnnnnnnnnnnnnnnnnnnnnnnnnnnnnnnnnnnnnnn",
"nnnnnnnnnnnnnnnnnnnnnnnnnnnnnnnnnnnnnnnnnnnnnnnn",
"nnnnnnnnzcnkkkkkzcknnzcczkkkkznknnnnnnnnnnnnnnnn",
"nnnnnnnnczkcnzznczcnnckzcnzznczcnnnnnnnnnnnnnnnn",
"nnnnnnnnzknzkccknkznnzkczkccknkznnnnnnnnnnnnnnnn",
"nnnnnnnnkczkhrygknkkkkczkh0tgknknnnnnnnnnnnnnnnn",
"nnnnnnnnkkzk4 #uczcnznczk5X#yczknnnnnnnnnnnnnnnn",
"nnnnnnnnzkxj*#O8vzzkckzzk-#O6vzknnnnnnnnnnnnnnnn",
"nnnnnnnnkkzj-#Oevkkdigkzk;#O7czknnnnnnnnnnnnnnnn",
"nnnnnnnnkkxj-#O9vks=+7kzk;#O7czknnnnnnnnnnnnnnnn",
"nnnnnnnnzkzk=#OeccqX+%hzk-#o7vzknnnnnnnnnnnnnnnn",
"nnnnnnnnkczk9.*akc0O#&hzk0.&akzknnnnnnnnnnnnnnnn",
"nnnnnnnnkczkgpdkzcqO#&hnkkpdgknknnnnnnnnnnnnnnnn",
"nnnnnnnnnkczkcczzc0O#%hnzkcckzcznnnnnnnnnnnnnnnn",
"nnnnnnnnkczczzzczci@X3kzkbzznczcnnnnnnnnnnnnnnnn",
"nnnnnnnnnknkkkkknkgiwhkznkkkkknknnnnnnnnnnnnnnnn",
"nnnnnnnnnnnnnnnzczkcckznkznnnnnnnnnnnnnnnnnnnnnn",
"nnnnnnnnnnnnnnnczcnzznnkncnnnnnnnnnnnnnnnnnnnnnn",
"nnnnnnnnnnnnnnnknzkkkkknkznnnnnnnnnnnnnnnnnnnnnn",
"nnnnnnnnnnnnnnnnnnnnnnnnnnnnnnnnnnnnnnnnnnnnnnnn"
};
