/* XPM */
static char *_db1690de45d4c2aa3d1b2f14661b13flKYp9XdZkZKalsWv[] = {
/* columns rows colors chars-per-pixel */
"48 48 134 2 ",
"   c #040501",
".  c #0A0303",
"X  c #020A01",
"o  c #0A0D03",
"O  c #031401",
"+  c #0C1404",
"@  c #031B02",
"#  c #0C1A04",
"$  c #131406",
"%  c #151907",
"&  c #1C1609",
"*  c #181D08",
"=  c #022002",
"-  c #082704",
";  c #022C02",
":  c #0C2A05",
">  c #102506",
",  c #1B2209",
"<  c #162808",
"1  c #1B2A0A",
"2  c #023203",
"3  c #0D3606",
"4  c #013D04",
"5  c #24230C",
"6  c #28240D",
"7  c #26280C",
"8  c #2A2D0E",
"9  c #26370E",
"0  c #2B320E",
"q  c #25390D",
"w  c #333511",
"e  c #383713",
"r  c #343A11",
"t  c #3C3C14",
"y  c #044405",
"u  c #0E4007",
"i  c #044C05",
"p  c #094A07",
"a  c #025405",
"s  c #045A06",
"d  c #085E07",
"f  c #3D4315",
"g  c #3B4B14",
"h  c #036306",
"j  c #046B07",
"k  c #076708",
"l  c #0A6408",
"z  c #0A6C09",
"x  c #067308",
"c  c #0B740A",
"v  c #0C7C0B",
"b  c #414416",
"n  c #434A17",
"m  c #474718",
"M  c #494D18",
"N  c #455017",
"B  c #465218",
"V  c #4C511A",
"C  c #4C5A1A",
"Z  c #545B1C",
"A  c #55641E",
"S  c #5C6520",
"D  c #5F6E21",
"F  c #626B21",
"G  c #657523",
"H  c #697625",
"J  c #6C7D26",
"K  c #0D810B",
"L  c #0F8A0C",
"P  c #12860D",
"I  c #128B0D",
"U  c #0F900C",
"Y  c #12930D",
"T  c #139B0E",
"R  c #159F10",
"E  c #14A30F",
"W  c #14B00F",
"Q  c #15A510",
"!  c #16AB11",
"~  c #18AE12",
"^  c #17B311",
"/  c #19B312",
"(  c #17B811",
")  c #19BD12",
"_  c #6F8127",
"`  c #6F8028",
"'  c #718227",
"]  c #728328",
"[  c #768929",
"{  c #7A8D2A",
"}  c #7E922C",
"|  c #7F942C",
" . c #1AC112",
".. c #1AC113",
"X. c #1BC813",
"o. c #1CCA13",
"O. c #1ED015",
"+. c #81952D",
"@. c #81962D",
"#. c #82972D",
"$. c #83982D",
"%. c #849A2E",
"&. c #859A2E",
"*. c #859C2E",
"=. c #889E2F",
"-. c #899E30",
";. c #8BA230",
":. c #8DA331",
">. c #8DA431",
",. c #8FA532",
"<. c #8FA832",
"1. c #91A733",
"2. c #92A633",
"3. c #92A933",
"4. c #92AA33",
"5. c #94AB33",
"6. c #93AC33",
"7. c #93AD34",
"8. c #94AC34",
"9. c #96AD34",
"0. c #98AF35",
"q. c #96B134",
"w. c #97B134",
"e. c #96B135",
"r. c #98B235",
"t. c #98B335",
"y. c #9AB336",
"u. c #9DB737",
"i. c #9EB838",
"p. c #9FB938",
"a. c #A0BA38",
"s. c #A0BB38",
"d. c #A4BE39",
"f. c #A6C33A",
/* pixels */
"Q E I I I Y E Q Q Q Q Q Q /  .) ) Q E ! Q Q Q Q Q Q Q Q R I I I T E Q Q Q Q Q Q Q Q Q ! Q Q Q Q ",
"Q E I I I Y Q Q Q Q Q Q E /  .) ) ! Q Q Q Q Q Q Q E Q Q Y I I I T Q Q Q Q Q Q Q Q Q Q Q Q E Q Q ",
"Q Q T E T E Q Q Q Q Q Q E ! Q W ! Q E Q Q Q ~ T ^ Q Q Q Q E T T Q Q Q Q Q Q Q Q Q Q Q R Y Y I T ",
"Q Q Q Q Q Q Q Q Q Q Q Q ! E E Q E E Q ! ~ Y y > y Y ^ Q Q Q Q Q Q Q Q Q Q Q Q Q Q Q Q R I I L T ",
"Q Q Q Q Q Q Q Q Q Q Q Q Q Q Q Q Q Q Q E p + f =.t + i R Q Q Q Q Q Q Q Q Q Q Q Q Q Q Q T I I I Y ",
"E E Q Q Q Q E E E E Q Q Q E Q Q E Q ~ p t ] 4.s.4.] b p Q Q E Q Q Q Q Q E E E E Q Q Q T I I I Y ",
"I Y E Q Q T I Y I T Q Q Q T T T T E ! ; Z q.#.d.#.q.Z ; Q Q Q Q Q Q Q E Y I I I Q Q Q Q E Q Q T ",
"I I Q Q Q T I I P T Q Q Q E T T T E ! p n 6.4.;.4.9.B i ~ Q Q Q Q Q Q E Y I I I E Q Q Q Q Q Q T ",
"I I E E Q T I I I Y Q Q Q T T T T T / k 7 9.[ G { 9.7 k / Q Q Q Q Q Q E I I I I Q Q Q Q Q Q Q Y ",
"Y Y E Q Q T Y Y I T Q Q E T T E T E ~ K q :.4.&.4.,.q v ~ Q ~ Q Q Q Q E Y Y Y Y Q Q Q Q Q Q Q Y ",
"Q E E Q Q Q E E E Q Q Q Q E E E E E Q ( 2 V &.s.&.V 2 ^ W ) ) ) ~ Q Q Q E E E Q Q Q Q Q Q Q Q E ",
"Q Q E Q Q Q Q Q Q Q Q ~ / ~ / ~ Q ^ Y a < 8 8 0 8 8 < i E X. .X.( ~ ^ Q Q Q Q Q Q Q Q Q Q Q Q Q ",
"Q Q Q Q Q Q Q Q Q Q ~ c 4 p y s R v @ m 2.r.9.9.9.r.2.M = L W c p y 4 c ~ Q Q Q Q Q Q Q Q Q Q Q ",
"Q Q Q Q Q E T T E v ; 1 b H F w O * { f.&.J ' ] ] J #.f.} , O 8 V F m 1 ; K W E T T T T Q Q Q Q ",
"Q Q Q Q Q T I Y P @ Z 2.9.[ r.*.  ' i.9.] ' ] J ] J ' 5.u.[   { 9.q.q.{ F @ T Q I I I Y Q Q Q ^ ",
"Q Q Q Q Q E I I ; w *.#.#.:.| * [ &.J 4.:.J ] ] [ J :.4.J &.{ , } { | { 9.t 2 E I I L Y Q Q Q / ",
"Q Q Q Q Q T T y 7 [ } <.| ;.% F ,.J _ } 9.] ] ] ' ] r.} J J 2.F % $.{ 4.$.4.7 i Y I P Y Q Q Q ~ ",
"Q Q Q Q Q Q c   [ 9.;.} 9.n n 9.H ] _ _ 9.{ J J J [ 9.] ] ] J 9.B f ,.9.*.*.}   v T Y T Q Q Q ! ",
"Q Q Q Q Q ~ ; n ;.,.[ } | , -.{ J _ ] J ;.u.,.<.,.r.,.J ] ] J [ -., =.{ $.,.:.M ; ^ Q Q Q Q Q Q ",
"Q Q Q Q Q Y O G ;.,.$.g # % r.3.| _ _ *.q.;.;.;.;.;.q.*.] J } 2.r.% O g J ;.3.] X Y Q E Q Q Q Q ",
"! Q Q Q / d 5 | [ *.n i h f r.&.r.[ ,.q.} J _ J J J } r.,.[ 0.&.t.f s a f | { | 5 s / Q Q Q Q Q ",
"Q Q Q Q / a t ;.$._ 5 L x f 5.G { 9.9.' J ] _ ] ] J J ] 9.9.{ G 6.b x Y $ H $.&.f a / R Q Q Q Q ",
"Q Q Q Q ( a r [ *.1 y ) x f 6._ J ,.$.J ] _ ] ] ] J ] J #.,.J J 6.f j  .4 1 #.[ w a ( Q Q Q Q Q ",
"Q Q Q Q / a f ;.V @ X.O.j f 9.J J ,.$.J _ ] ] _ ] ] ] J #.,.` J 6.b k X./ O n ,.b a / Q Q Q Q Q ",
"Q Q Q Q / s 8 {   c  .X.k f 4.J J :.$.J ] ] ] ` ] J ] _ $.<._ J 7.f j X.Q z   { 8 s / R Q Q Q ! ",
"Q Q ) ( ) ^ u & 4 ~ Q ( s m 6.J J ;.#.J ] ] ` ] ` ] _ _ | ,.J J 7.m a ^ Q / y & 3 K I Y Q Q Q Q ",
"Q Q (  . ...K z Q Q Q ~ K q 4.' ] r.4.J _ ] ] ] ] ] ` _ ,.t.] _ 4.9 v ~ Q Q Q z z Y I Y Q Q Q Q ",
"Q Q ) ) ../ Q ^ Q Q Q Q Q ; 2.#.3.#.9.4.] J ` J ` ` ] <.q.| 6.| 2.- Q Q Q Q Q ! Y I I Y Q Q Q Q ",
"Q Q ) ) ) / Q Q Q R R Q R : 2.i.=.J ] 3.9.| { } #.{ r.9.] J ;.i.2.> Q Q Q Q Q R I I I Y Q Q Q Q ",
"Q Q Q Q Q Q Q Q Q T L I K > 3.[ J ] ] J 2.i.3.7.2.s.2.J _ ] J { 2.: R Q Q Q Q Q Q Q E E Q Q Q Q ",
"Q Q Q Q Q Q Q Q Q R I I Y y S 2.J ] ] J 9.#.J J J | 9.J ] ] J ,.F i ~ Q Q Q Q Q Q Q ! Q Q Q Q Q ",
"Q Q Q Q Q Q Q Q Q T P I I U : { #.J J #.0.[ ] ] ] ] r.| J J } { : T ! Q Q Q ! Q Q Q Q Q Q Q Q Q ",
"Q Q T T T T Q Q Q T Y Y Y E K + q.| H ,.7.J ] ] ] _ 6.<.G #.r.% x Q T T E Q Q Q E Q Q Q Q Q Q Q ",
"Q Q I L P Y Q Q Q Q Q Q Q Q ! c , | <.7.] ` ` ] ] ` ] 7.,.#., c T P I I Q Q Q Q Q Q Q Q Q Q Q Q ",
"Q E I I I Y Q Q Q Q Q Q Q Q Q ( h r r.i.| ` ` ` _ J | i.i.t h / Y I I I T Q Q Q Q Q Q ! ~ Q Q Q ",
"Q E I I I U Q Q Q Q Q Q Q Q Q Q ( y . g [ <.{ ` { 6.[ g . y / Q Y P I I E Q Q E Q Q Q Q Q Q Q ~ ",
"Q Q T T T Y T T T T Q Q Q Q Q Q Q 2 N S % N } ,.} B * C m 2 T T T Y T T E E Q Q Q Q Q Q Q Q Q Q ",
"Q Q Q Q Q T I I P T Q Q Q Q Q Q v o } i.<.N o 0   A #.| { o l I T Q Q Q Q Q Q Q Q Q Q Q Q Q Q Q ",
"Q Q Q Q Q T I I I T E Q Q Q E / 2 V q.,.<.[ % a + 7.4.#.d.Z ; Y T Q Q Q Q Q Q Q Q Q Q Q Q Q Q Q ",
"Q Q Q Q Q E I I I Y Q Q Q Q ! c , | 7.q.| 7 s ( s , u.9.q.:.* s E E Q Q Q Q Q Q Q Q Q Q Q Q Q Q ",
"Q Q Q Q Q T I I I Y Q Q Q Q / 4 M *.] f.{ o Y ^ Y o [ $.,.u.M 4 ~ Q Q E R Y Y Y Q Q Q Q Q Q Q ~ ",
"Q Q Q Q ! T I I I T Q Q Q Q / 4 m t.t.q.7 a Q Q / l 5 q.4.,.m 4 / Q Q E I I I I Q Q Q Q Q Q Q ~ ",
"Q Q ! Q Q T I I I T Q Q Q Q ! v   0 [ e = Q Q Q W  .; e [ 0 X c ~ E Q E Y I I I R Q Q Q Q Q Q ~ ",
"Q Q Q Q Q T I I I Y Q Q Q Q Q Q T y O 4 K Q Q Q Q  .W a @ a T ~ E Q Q Q I I I I Q Q Q Q Q Q Q ~ ",
"Q Q ( ( ( ( R Q E Q Q Q Q E Q Q Q W E ! Q E Q Q Q Q W ^ Q / Q E Q Q Q E Y I I I Q Q Q Q Q Q Q Q ",
"Q Q )  . .( Q Q Q Q Q Q Q Q Q Q Q E Q E Q Q Q Q Q Q Q E Q Q Q Q Q Q Q E I I I I Q Q Q Q Q Q Q Q ",
"Q Q ) ) ) ( Q Q Q Q Q Q Q Q Q Q Q Q Q Q Q Q E Q Q Q Q E Q Q Q E Q Q Q Q Y I I I Q Q Q Q Q Q Q Q ",
"Q E )  .) ^ Q Q Q Q Q Q Q Q Q Q Q Q Q Q E Q Q Q E Q Q Q Q Q Q Q Q Q Q E I I I I Q Q Q Q Q Q Q Q "
};
