/* XPM */
static char *_d1a4259a2904aced8a8ec2ac2e99ccc9PCALTw43tEugvRi[] = {
/* columns rows colors chars-per-pixel */
"48 48 43 1 ",
"  c #12880D",
". c #128B0D",
"X c #138A0E",
"o c #128D0D",
"O c #128E0D",
"+ c #138C0E",
"@ c #12900D",
"# c #13910E",
"$ c #12950D",
"% c #12950E",
"& c #13960E",
"* c #139A0E",
"= c #139B0E",
"- c #149A0E",
"; c #159B0F",
": c #139C0E",
"> c #139E0E",
", c #149D0F",
"< c #14A00F",
"1 c #14A10F",
"2 c #15A50F",
"3 c #15AB0F",
"4 c #15A310",
"5 c #15A411",
"6 c #16A511",
"7 c #15A710",
"8 c #16A611",
"9 c #15A810",
"0 c #16A811",
"q c #15AC10",
"w c #16AF10",
"e c #17B310",
"r c #17B411",
"t c #17B611",
"y c #17B911",
"u c #18BA11",
"i c #18BC11",
"p c #18BD11",
"a c #19BF12",
"s c #1ABF13",
"d c #19C012",
"f c #1AC013",
"g c #1AC313",
/* pixels */
"...9ggr6966466667664O..*766669664egpapayfffr6696",
"##O2re3>>>9962667674#OO*4**796964wyyyaaaytyw9996",
"662&...O.O1676777774772&..#767767774egay666ryge4",
"669&....OO1646664647672&..&766676664wyaa666rage7",
"662&....OO4616967467767#..&447747764wapy966epar2",
"292&..#4>4466eaye4677671>4*OO#4764676w7996269926",
"622&..&666661raar466767646*..O>76766677446666666",
"666# .#663669ragr766646766*...766776667469639663",
"266>&&>7467699ee97664776964&&*4744766797*%&46464",
"747777774666644479646666697677777744646<.  &6776",
"6764666667773466676776747664646647666744.O.*6969",
"444477444446226644477<447467777677446764OOO*7446",
"OO.*66*.OO777>*->746@..>677767747&..&747464% O.O",
".O.*96*..O664>;*>462...>646666667&..&666669%XOXO",
"...*96>O.O764>*>>462 . *967747666&..#767669#XX..",
"***7664***44611>4774>>*467qeee766>**>764747<===>",
"66666966667476667774696667wdgp967666677766766666",
"77746696967767696666477764wday966677666674774999",
"747796*>>*4767964*>*4747679ree>**4664***7647rq74",
"666496* .O466466* .O4664677464.O.<96*...467eddr7",
"666646*...466636* .O466766666>OO <74*.OO474egae4",
"696976>OOO466944> OO4764626674.OO=74*.OO474epye6",
"666947444474664974>4474723>**>4<4447444447479969",
"666777777667664677967466644*>*966477776674676666",
"69667667669161346696369266>*>>464474664666766677",
"6647674769rer966749>**&>6616>>wee7764774774467*&",
"9676666769ppge264767   *966666pgge767777667776*.",
"6767747669yga3467626.O.>969666pppw466666776769*.",
"7669999669yry366441>###*14>766yyeq764><*476776>O",
"766egpr666626626>**>262>>*>266627776*.O.44476747",
"664eagr9696634664>*>266,*,>666664676*..O<6664647",
"764egye762266666>;-*262>-*>366927776*.OO76474964",
"7677999767#O.>7744>747744447747747467>4447676774",
"6766476674OO >6464767647747477466666666674664666",
"7677777761O .*7747777977744674777676747776476677",
"767*&&*764*&&>677477&&&4677674***>674746476767*&",
"467#  #247776676466<. .=676664  .*677669666776*O",
"767&..&7667666677667...=647677OO.*677666666476*.",
"446&.O&24>7474764664OOO=97744>O..*644666966776*.",
"7674>6*.OO4647677494444766*.O.624477746766476774",
"676669*.O.4667466466666666*.O.766669664696666666",
"767776*..O6667677667774777*...467779776776777477",
"466776*..O466476<O#%477wrrw**>467&#O*766767wyew4",
"676669*..O466776=.O.444rage676767# .#747664ragr4",
"767746&..O446476=...764eagr667767&. &764664eagr9",
"4679we7#&&>76776=#%%464wyew764467& .#767767wrrw6",
"764raae77777646777777477474467767& O&74776747447",
"667rage46466767666466766666676467&O &66467666666"
};
 