/* XPM */
static char *b25fb3524d884665bd666ee59c2950e8iPIYacFjrDEHoCmJ[] = {
/* columns rows colors chars-per-pixel */
"48 48 124 2 ",
"   c #477A38",
".  c #12870D",
"X  c #128B0D",
"o  c #0F9E0B",
"O  c #12930D",
"+  c #139B0E",
"@  c #178F12",
"#  c #1A9E15",
"$  c #26931E",
"%  c #28951F",
"&  c #239A1B",
"*  c #2A9C1E",
"=  c #14A30F",
"-  c #13A90E",
";  c #13B20E",
":  c #15A510",
">  c #18A113",
",  c #16AA10",
"<  c #1DAA15",
"1  c #17B311",
"2  c #18B511",
"3  c #17B811",
"4  c #19BD12",
"5  c #24A11C",
"6  c #29A61F",
"7  c #28AA1D",
"8  c #2B8E22",
"9  c #318F26",
"0  c #3C842F",
"q  c #348A29",
"w  c #3D8C2E",
"e  c #2D9223",
"r  c #339227",
"t  c #3C902E",
"y  c #399C28",
"u  c #3E8530",
"i  c #41962E",
"p  c #458635",
"a  c #438A33",
"s  c #498C36",
"d  c #478138",
"f  c #4D843B",
"g  c #4F8A3B",
"h  c #50863D",
"j  c #538B3D",
"k  c #56913D",
"l  c #59943E",
"z  c #519C38",
"x  c #5D9B3E",
"c  c #619D3E",
"v  c #41A52B",
"b  c #64A33E",
"n  c #6EA63E",
"m  c #67A93E",
"M  c #6CAA3E",
"N  c #73B63F",
"B  c #17C210",
"V  c #19C012",
"C  c #578C40",
"Z  c #588C40",
"A  c #5B9341",
"S  c #5D9A40",
"D  c #5C9C40",
"F  c #609743",
"G  c #639C42",
"H  c #61A041",
"J  c #63A340",
"K  c #63A441",
"L  c #65A741",
"P  c #69A443",
"I  c #67AA41",
"U  c #68AB41",
"Y  c #6CAD41",
"T  c #6DAD41",
"R  c #6EAA47",
"E  c #6DB142",
"W  c #74B541",
"Q  c #72B544",
"!  c #7BB544",
"~  c #74B843",
"^  c #76B843",
"/  c #76B943",
"(  c #79BA41",
")  c #7CB842",
"_  c #7DBD42",
"`  c #73B148",
"'  c #79B24C",
"]  c #82BB45",
"[  c #84BE48",
"{  c #85B452",
"}  c #82B851",
"|  c #86BA52",
" . c #8EB75B",
".. c #8EBE58",
"X. c #8DC645",
"o. c #8DC24A",
"O. c #92C947",
"+. c #95C74C",
"@. c #94C94A",
"#. c #90C353",
"$. c #91C558",
"%. c #92C459",
"&. c #9AC85B",
"*. c #A4CD64",
"=. c #A3CA69",
"-. c #A9CE6C",
";. c #AAD068",
":. c #ACD16D",
">. c #B4D473",
",. c #B4D477",
"<. c #B9D876",
"1. c #B7D679",
"2. c #B9D779",
"3. c #BAD879",
"4. c #BBD87B",
"5. c #BBD87D",
"6. c #B7D383",
"7. c #BED981",
"8. c #BFDA83",
"9. c #C1DC80",
"0. c #C2DB86",
"q. c #C4DC89",
"w. c #C5DD8A",
"e. c #C8DD8F",
/* pixels */
": = X X X O = : : : : : : 2 V 4 4 , : : : : : : : : : : + . X X O , : : : : : : : : : : : : : : ",
": = X X X O : : : : : : = 2 V 4 4 , : : : : : : : : : : + X X X + : : : : : : : : : : : - : : : ",
": : + = + = : : : : : : > , , , - : : : : > : : : : : : = > + + = : : : : : : : : : : + O O X + ",
": : : : : : : : : : : : = = : = : : : : : : : : : : : : : : : : : : : : : : : : : , : + X X . + ",
": : : : : : : : : : : : : : : : : : : : : = : : : : : : , : = : : : : : : : : : : : : o @ . . + ",
"= = : : : : = = = = = : : = = = = : : : : = = = = : : : : : = : : : : : = : = - : : : + X X . + ",
"X X = : : = X X X + : : : = + = + = : : = O X X O : : : : : : : : : : = X X O X : : : : = = : O ",
"X X = : : + X X X + : : : + + + + = : : = X X X O : : : : : : : : : : = O X X X : : : : : : : + ",
"X X = : : + X X X + : : : + + + + = : : = X X X O = : : : : : : : : : = X X X X : : : : : : : + ",
"O O = : : + X O X + : : = = + + + : : : = O X O O : : : : : , , , : : : O O X X = : : : : : : O ",
"= = : = : : : : : : : : : = = = = : : : : = = = = : : : 1 V 4 4 , : : : = - : : : : : : : : : = ",
", = : : : : : : : : : : : : : : : : - = : : : = : : : : 1 V 4 V , : : - : : : : : : : : : : : : ",
": : : : : : , , : : : : : : : : : = # & # - - - - = = = 1 V V V 1 = : : : : : : : = : : : : : : ",
": : : : : = + + + + : : : : : = # q j j p 9 8 $ # : = = : 2 1 2 : + + + = : = : + + + o : : : , ",
": : : : : + X X X + : : : : : # a C k j j k j l d a 5 - - = = - O . X X o : : = X . . O : : : , ",
": : : : : + X X X O : : : : : 0 A k k j f h j j h k w # & & & = + . @ . : : : : O X . O : : : 1 ",
": : : : : + . X X + : : : = 8 h l g d j f x x j x x j p f j j t @ . . . = : : : . . . O : : + 1 ",
": : : : : : O + O + : : = = a j f j c x j x I D I L D l f f l j u @ + O = : : : + + O + : : : , ",
", : : : : : : : , : : : , : s C j E _ _ x j L R T x D I j f h f C d # - : : : : : : , : : : : : ",
": : : : : : > : : : : : : : z j x ^ ( ( W { -.>.;.=.| L k L l f C Z r - : : : : : : : : : : : : ",
": : : : : : : : : : : : : : s k c ( Q W *.9.0.3.0.3.<.{ j x b j C C 8 - : : : : : : : : : : : : ",
": : : : : : : : : , 2 2 3 - 8 f U ^ N $.q.e.1.8.5.3.,.+.n k H d C   5 3 : : : : : - : : : : : : ",
": : : : : : : : : 1 4 V V ; $   b ^ m =.w.9.8.0.3.3.&.o.[ x b j C q 4 4 , : : : : : : : : : : : ",
": : : : : : : : : 1 V 4 4 < p f x ^ x  .9.>.e.8.:.$.[ +.+.L l f C 6 B 4 : : : : : : : : : : : : ",
": : : , : : : : > 1 4 4 V 5 j h k W b R 1.<.5.3.#.[ X.+.+.P x j C 7 B 3 , : : : = = : : : : : : ",
": : 3 4 4 2 : : : : = : - & f k j M E M ..3.e.2.o.@.X.O.o.G j f u > - - : : : o X X X O : : : : ",
": , 4 4 V 3 : : : : : : = = a j g k b M Q { 6.-.o.O.+.O.! f d f 8 - : : : : : : X X X O : : : : ",
": : 4 4 V 2 : : : : : : : - $ j j j j k M N ` ' ! ] ] ( L S d 8 + : : : : : : : X X X X : : : : ",
": : 3 4 4 2 : : : = = = = = = $ p k j g h T U P M m g j G S 9 = : : : : : : : : O X X O : : : : ",
": : : : : : : : = + X X X + : - e s s g p k x l b k k x G t # : : : : : : : : : = = - - : : : : ",
": : : : : : : : : + X X X + : : - > = > > i G S L P R l 9 > = : : : : : : : : : : : : : : : : : ",
": : : : : : : : = O . X X + : : : : : = : : 8 y y y v * = : , = : : : : : : : : : : : : : : : : ",
": : + + o + : : : + O O O o : : : : : : + + o o o - - - : : : : : o + + = : : : = : : : : : : : ",
": : X X X O : : : : : : : : : : : : : : : X X X X : : : : : : : O . X X : : : : : : : : : : : : ",
": : X X @ X : : : : : : : : : : : : : : : X X X O : : : : : : : O X X X = : : = : : : : : < : : ",
": : X X . O : : : : : : : : : : : : : : : X . . X : : : : : : : O . X X + : : : : : : : : : : : ",
": : o O + O O o O : : : : : : : : : : : = + O O o : : : + O O o + + + O : : : : : : : : : : : : ",
": : : : , + X X . O : : : : : : : : : : : , : : : : : : O X X . + : : : = : : : : : : : : : : : ",
": : : : : + @ X X + : : : : : : : : : : : : : : : : : : + X @ X + : : : : : : : : : : : : : : : ",
": : : : , + X X X O : : : : : : : : : : : : : : : : : : O X X . + : : : : : : : : : : : : : : : ",
": : : : , + X X X O , : : : : : = o O O O : : : , 2 2 2 : + + + = : : = O O O O : : : : : : : , ",
": : : : , + X X X + : : : : : : = X X X X : : : , 4 4 B 1 : , : : : : = O X X X : : > : : : : 1 ",
": : : : : + X X X + : : : : : : = O X X X = : : , B 4 B 1 : : : : : : : X @ X O : : : : : : : , ",
": : : : , + X @ X O : : : : : : = X X X X : : : , 4 4 4 , : : : : : : = O X X X : : : : : : : 1 ",
": : 3 3 3 1 : + + + : : : : : : : = + : + = : : : , , , : : : : : : : : X X X X = : : : : : : : ",
": : 4 V V 3 : : , : : : : : : : : : : : : : : : : : : : : : : : : : : = O X X X = : : : : : : : ",
": : 4 4 V 3 : : : : : : : : : : : : = : : : : : : : : : : : : : : : : = O X X X : : : : : : : : ",
": , 3 B 4 1 : : : : : : : : : : : : : : : : : : : : : : : : : : : : : = X X X X = : : : : : : : "
};
