/* XPM */
static char *_0f96ae4ac1848349a3e9a3ad43d0d25nPvA3ccgvjlOgjjV[] = {
/* columns rows colors chars-per-pixel */
"48 48 43 1 ",
"  c #4BA447",
". c #4BA647",
"X c #4BA947",
"o c #4BAB47",
"O c #4BAD47",
"+ c #4BA748",
"@ c #4CA748",
"# c #4BAE48",
"$ c #4CAE48",
"% c #4CAF48",
"& c #4BB048",
"* c #4BB248",
"= c #4CB148",
"- c #4CB348",
"; c #4CB448",
": c #4CB548",
"> c #4CB449",
", c #4DB449",
"< c #4CB749",
"1 c #4DB749",
"2 c #4CBA49",
"3 c #4DBA49",
"4 c #4DBB49",
"5 c #4EBB49",
"6 c #4DB94A",
"7 c #4DBB4A",
"8 c #4EBA4A",
"9 c #4DBC4A",
"0 c #4EBC4A",
"q c #4EC149",
"w c #4EC349",
"e c #4EC14A",
"r c #4EC24A",
"t c #4FC64A",
"y c #4FC74A",
"u c #4FC84A",
"i c #4FCB4B",
"p c #4FCC4B",
"a c #4FCD4B",
"s c #50CB4A",
"d c #51CD4B",
"f c #51CD4C",
"g c #50D04B",
/* pixels */
"=...4444084tffs8488880888>o..&998880898444448488",
"=.o.:444804tgfs4488888089>...&998888844888884448",
"=oOO=4448898stt4990888849>#O$:9448448444:=::9444",
"9944944444844444788844489777444444449484@@@$9:44",
"884:444484888444774444848488444844448884#@.O4444",
"44848888484484447749444884494:8499444484X+.O4499",
":844##==4444=::474:#$$4484884484:$=$=484=&&*$#&&",
"=844X+@$444:=:*924$.@@:4888448844++@=0499999++..",
"=089XX+#444>>>&999# X@:8844444446+X+#94:444:+$+X",
"=844#X+X444>>&>979#+X@88444444484@X+&944848=+XX.",
"48444&44444488497977489440fdfr=0484:44448444:444",
"84444444444484497779888840dff0494444894448444444",
"48488899846444007772444899ffgr449444999984849>94",
"8484>&>#4888444&**:4488844ttt9=$#444:&:#4888eue9",
"8884X++#4848484@..*4488444:44O@++444&X++:980gfpr",
"8844#X+X484848=@..*9488444444$.$+449&+++4990pffr",
"8444X@@&4488444@..*4444444848$@@@448#X.o&444pppr",
"8489:::>4888444=::4442444::::::=:9448=::9949r0r0",
"88:4998848888448444477774=::=4998849877784444844",
"84444444444488444444777744=:=:984488897748488844",
"8808444080094444488>887>44=&=4809448844488008408",
"80804448pppr*74448#++X8444944tdfp84884444488448#",
"48087400pfpr777740=+X+&444444yffp448944448984>4#",
"4884777rgppy777888$X++4944444ugfp44884998844448#",
"8uur9440tee94488:::===::=88898yyy677&&#&4848449=",
"upgp0477:444488:==4000:::$8444887877#X++=8484948",
"rpfp44774444488:4=:084:==:9848448040#X++80484484",
"yupp44474444488=:=:884:=::4448888848&X+X88488888",
"0000948:ooo=4:77844884:4444248884448:44*87774448",
"4804448:.@.=94478884490844:784884084844487764484",
"0099498:+.@=947786888844447799770048444477774499",
"9>:&400:$$X:4477888::$44447798>&=88484427777499&",
"#...:9444489848844$+++84444:4#++X99498080808844#",
"&+$o:444888:488098=X@X=444884#+@X:4480808080880#",
"#...44444444840848#@+#:444890&X@@:4488440088444#",
":&#==&#=4848808048:=#&448:=&==#&$44484449894440>",
"9984$ .o44:48777944444440:++.#949986484484444404",
"4944@@.O44448747084444448:+X#&444484774284444>88",
"4444@@@O447778444:4444940&X#.&444464777288444944",
"4444X@X#4877744+@@=484usfy8844444@@@&9778099fufe",
"4444$.@$4887777.@+#994sdfu8888444+++&0480870pppu",
"4444.@@X4888777.@@#944ffgy484448=X@+&848808rpgpr",
"4eew=$$:4848497&$$:444etyr8488488#X+&0840448yyyr",
"ydgd9494488894>74444444:884980408XXX&0448988>>44",
"edda00888488444444888400777488988X++&04484480448",
"yufd9444449044>44444444877:488487+..&04448484470",
"ygfa99808808084944&X##80904844444y9yyyys0488447&",
"eafd99080880884499&+++=4480844444aaagfff0844444&"
};
