/* XPM */
static char *_c5b10b7bdef44e8c8efb999290d9f3fyB3Kc6MXfXWsRBTb[] = {
/* columns rows colors chars-per-pixel */
"48 48 114 2 ",
"   c #47260D",
".  c #49280E",
"X  c #4D2B12",
"o  c #533016",
"O  c #553319",
"+  c #5A371C",
"@  c #5B391F",
"#  c #5F3C22",
"$  c #623D22",
"%  c #644125",
"&  c #684227",
"*  c #674529",
"=  c #6B452B",
"-  c #6C4A2E",
";  c #714A2E",
":  c #6D542F",
">  c #6F4C30",
",  c #754F33",
"<  c #7B4D35",
"1  c #6D5430",
"2  c #6C5A30",
"3  c #765134",
"4  c #7A5336",
"5  c #7F5639",
"6  c #7F5F3B",
"7  c #6A6F31",
"8  c #7D653A",
"9  c #756A3A",
"0  c #7C6E3A",
"q  c #6D7133",
"w  c #777638",
"e  c #7A703A",
"r  c #7C7B3C",
"t  c #844E39",
"y  c #81553A",
"u  c #8B563D",
"i  c #83593B",
"p  c #895C3D",
"a  c #83623B",
"s  c #81693B",
"d  c #8C703F",
"f  c #936140",
"g  c #9B6544",
"h  c #966C43",
"j  c #9E6E46",
"k  c #8D7A43",
"l  c #917542",
"z  c #9C7145",
"x  c #957B44",
"c  c #987844",
"v  c #A46646",
"b  c #A16C47",
"n  c #5B943C",
"m  c #5A9A3D",
"M  c #758239",
"N  c #79863C",
"B  c #778E3C",
"V  c #788B3C",
"C  c #6E9739",
"Z  c #6D9A3A",
"A  c #709339",
"S  c #7E973F",
"D  c #7D9B3F",
"F  c #63A23C",
"G  c #6EA63B",
"H  c #6BA93C",
"J  c #6DAB3C",
"K  c #6DAB3D",
"L  c #6EAB3C",
"P  c #6BAF3C",
"I  c #6EAE3C",
"U  c #6FAD3E",
"Y  c #6DAF3E",
"T  c #6EAF3E",
"R  c #77A23F",
"E  c #72A63D",
"W  c #73A73E",
"Q  c #74A53D",
"!  c #74A73E",
"~  c #73A83D",
"^  c #73A83E",
"/  c #71AB3E",
"(  c #70AC3D",
")  c #70AD3D",
"_  c #70AC3E",
"`  c #70AE3E",
"'  c #6BB13B",
"]  c #6DB03C",
"[  c #6CB23D",
"{  c #6DB23D",
"}  c #70B13E",
"|  c #7F9740",
" . c #7F9840",
".. c #878540",
"X. c #8F8142",
"o. c #8B8642",
"O. c #8C8541",
"+. c #8C8642",
"@. c #878D41",
"#. c #868E41",
"$. c #8A8A41",
"%. c #8B8842",
"&. c #8B8843",
"*. c #928143",
"=. c #839240",
"-. c #839341",
";. c #849040",
":. c #859041",
">. c #849141",
",. c #849240",
"<. c #819540",
"1. c #829540",
"2. c #829441",
"3. c #809840",
/* pixels */
"U U U U U U U U ) U U } _ _ U U U U U U U U ] ] ] ) U U U U U U ) U U ] ) U U U U U U U U U U U ",
"U U I U I I I I } U #.#.[ U I I I I I I U ] Q X.R ] U } U U U U U } ' <.$.' I I I I I I U U I I ",
"E ) U ) U U U I } -.b b #.U U U U U I U } ^ x b c R ] ) U U U U } ] 3.b b $.U U U U U I U I / -.",
"x Q ] ) ) ) ) U -.b j z b #.U U ) ) I U Q x b z b c R ] ) ) I U } <.b b j b $.U I I I U ) J c *.",
"b x U ) ) ) ] D b j j j z b  .] ) ) U U x b j j z b c ^ ] ) ) ] R b b z b j b #.P J J J I o.v o.",
"b x ) U ) ) U -.b j j j b b >.] ) ) ) / x j j j b j z ^ U ) ) ] <.j b j j j b &.I ) J I ( x b $.",
"b x ) U ) ) ] <.j j j j z b >.] ) ) U / c b z j z b z ^ U } ) ] 3.j z b j z v &.P J ) I I *.b O.",
"b x / U } ) ] <.b j j z b b <.[ ) ) U ) c j b z z j z / U ) ) ] 3.b b z j b b &.I I K J F x v $.",
"b c U U ) ) ] <.b b j j j b >.] / U U / x b b z b j z Q ] T / ] 3.b z j j j b &.U K } F m k v &.",
"b c U U ) ) ] <.b z j j b b >.] U } T / x b z j j j z ^ U T T ] D b b j j j v o.P U _ F m x v &.",
"b x U U U ) U <.b b j b j b -.] / U U ] c b b j j j z ^ / } } ] 3.b j j j b v $.' K } m m k v +.",
"p a 0 0 0 0 e s p a p p p p s 0 0 0 e e f p p p p p f 0 e e 0 0 s p p i p a p s e 0 e 9 9 8 u r ",
"y y y y y y y y i 5 i i 5 5 5 y y y y y 5 5 i i i 4 5 y i y y y y 5 5 i i 5 5 y y y y y y y y w ",
"i i i i i i i 5 i y = & 4 i i 5 i i i i i y , $ > i i i i i i i i i 5 = & 4 i i i i i y y i y e ",
"4 3 4 4 4 4 4 4 4 , X X , 4 3 4 4 , 4 4 < 4 $   + 4 , 4 3 , < 4 4 4 3 X X = 4 4 4 4 4 4 4 y < q ",
"- - - - - - - - > * O O & > > - > - > > - - # o # - - > > > > > - - = O O & - - - - - - - - = 7 ",
"- > > - - > - - - - - - - - - , > > > - > - - - - - - - - > - > > - - - - - - - - - > - - - = q ",
"- - - - - - - - - - - - - - - - - - - - - = - - - - - - - - - - - > - - - - - - - - - - - - = q ",
"y 8 Z A Z Z Z N 5 y 5 y i y M Z C C C C 8 y y y y 5 5 C Z Z Z Z M 5 i i 4 y y 0 Z Z Z Z Z 0 t r ",
"g l } } } } ] 1.g d g h g g <.} T [ P K l g h j g g h ) ] } } ] | g h j g h g ..] ] ] U T k g +.",
"b c U U ) ) ) <.v j j b j b 1.} } } U / c b j j j b z ! } ) } U 3.j b b j j b &.] ) ) ) ) x v &.",
"j c U U ) ) ] <.v j j j b b >.} U W U / c j j j j j z ! } ) U ] 3.b j j j b b +.] ) / } U *.v &.",
"b x U U ) ) } <.b z j z j b <.{ W } U / c z b j j b z / U } ) ] 3.j z j j j b o.] } ) / U x b +.",
"b x U U ) } } <.b b z b j b 1.] U U U / x b z j j j z E U } U ] 3.b j b j j b &.] ) ) } U *.v $.",
"b c ( I ( ( ] 1.b j j z j b >.} ^ ) } / *.b z b j j z / } / } U  .b z j b z b &.] ) ) } } *.v &.",
"b x U U ( ( ] <.b j j j b b <.} } ) ) ) x b b z j j z W } } } ]  .b z b z b b &.] ) ) ) ) *.v &.",
"b c J U ) ) ] <.b z b z j b >.} } } } ^ c b z b j b z W / } W ]  .b j j b j b &.] ) ) ) ) *.v $.",
"b c U U } ) ] <.b b z j z b >.} ! / ] ) x b j j j b z / U } U [ 3.b j j z b b &.U ) ) } ) x v &.",
"b x U U ^ } _ -.b j j j j b <.] } W U W x b j j z j j E U U } U  .b j j j j b o.] ) ) } U x v o.",
"b x U U } } U -.j j j j b b >.] } U U U x b j j b b z / U U U U  .j j j b j b o.] ) / } U *.v #.",
"b x / U U / [ -.j j b z j b =.' K K U U x b j z z b z E U J U [  .b z b j z b o.U / U ) U *.b $.",
"b c _ U ] U [ -.b b z b j b -.] / U U K x b j b z b z E U U J [ | b b z j b j $.U } } ) U x v $.",
"b c K U ) U U <.b z b j j b >.] / U U J c b j j j j z E J U J ]  .j j b j j b o.] U U U ) *.v $.",
"b x / K / ) U <.b j z b z v ;.[ G K J G c j j j j j z Z H U J J  .j j j j j b o.) ) ) U U x v $.",
"p i 8 8 8 8 8 a i i i i i i 6 8 8 8 8 8 i p i p i p i 8 8 8 8 8 a i i i p i p a 8 8 8 8 8 i u r ",
"5 y y y y y y y y y i i y y 5 5 y y i i i 5 5 i 5 i 5 y y y y i y y y y i y 4 5 y y y y i i < r ",
"i i i i 5 i i y i y % $ 4 i i i i i i 5 i i ; # = i y i i i i 5 i i 5 % $ 3 p i i i i i i i y w ",
"3 , , , 3 , , , 3 ; . . - 3 , , , , , , , < #   O 3 , , , , , , 3 3 ; X . = 3 ; , , , , 3 3 , q ",
"- - - = - - * - - = @ @ * - - - - * > * - * $ + $ - - - - - * - - - * @ + = - - - - - - * > $ 7 ",
"- - - - - - - - - - - - - - - = - - - - > > - > - - - - - - ; - - - - - - - - - = - - - - , = q ",
", > 2 2 2 2 2 1 - ; ; - , - : 2 2 2 : : - ; > > - , - : 2 2 2 2 1 - , - > > > 1 2 2 2 2 2 , - 7 ",
"p l G K G K } V p p p i p u N I G G F n 8 p p p p p a E J J G J B u p u p p u r K G K K K l u r ",
"b x U U ) } ] <.j j g j j g =.' ( I J m l j j h j j h Q ) U U ' | j h j j j b +.U U U T [ k v ..",
"b x / / } / U <.b j z j j b =.[ J J J G c b j j j j z E I K U ] S j j j j j v &.] ] / U U x v O.",
"b c U U / ) ] -.b z j j j b ;.I J ) U K x b j j j b j E U U ) ] | b j j b z b &.U } ) ) U x b $.",
"b c U U ) } ] <.b j j j j b -.' / K ) ) x j j j j j z ) U ) ) ]  .j j j b z b &.] ) ) ) I x b $.",
"b x / I ) ) } 1.b b b b b v ;.' K ) U ) x b b b b b b Q } ) ) ] | b b b b z b +.] U ) U U *.v *.",
"x *.) U ) } I -.x *.x x x x <.I ) ) ) Q *.x x x x x x ) ) ) ) ]  .c x c c c c >.] ) ) ) ) $.j -."
};
