/* XPM */
static char *_b9ea1ec247b498cc0fc4ae7d3af292df8Fw2ZM8GQkuKkU8[] = {
/* columns rows colors chars-per-pixel */
"48 48 89 1 ",
"  c #AF732E",
". c #B1742F",
"X c #B37630",
"o c #B67932",
"O c #BB7C34",
"+ c #C17F34",
"@ c #BE8037",
"# c #BF833B",
"$ c #C18236",
"% c #CD8737",
"& c #CF8837",
"* c #C2853A",
"= c #CC8738",
"- c #C4883F",
"; c #CD8939",
": c #D28B3A",
"> c #D88E3B",
", c #D5903E",
"< c #DD923C",
"1 c #E5963E",
"2 c #E7983F",
"3 c #E9993F",
"4 c #C68C43",
"5 c #CA8E43",
"6 c #CC9146",
"7 c #CE9448",
"8 c #D59444",
"9 c #DA9644",
"0 c #DC9845",
"q c #D29649",
"w c #D5994A",
"e c #DB9C4B",
"r c #E29741",
"t c #E39A43",
"y c #EC9C41",
"u c #E29F49",
"i c #F09F42",
"p c #DFA04D",
"a c #EEA145",
"s c #EFA145",
"d c #E6A049",
"f c #E2A04D",
"g c #E2A24E",
"h c #E4A24D",
"j c #E5A44F",
"k c #EAA149",
"l c #E9A54E",
"z c #EBA74F",
"x c #EDA64D",
"c c #ECA74E",
"v c #EEA84F",
"b c #F3A143",
"n c #F2A245",
"m c #F1A347",
"M c #F2A549",
"N c #F3A84B",
"B c #F6A94B",
"V c #F1A84D",
"C c #F5A84C",
"Z c #F6A94D",
"A c #F6AA4C",
"S c #F5AB4E",
"D c #F6AA4E",
"F c #F7AC4F",
"G c #FAAD4E",
"H c #E5A450",
"J c #E6A550",
"K c #E8A650",
"L c #EAA852",
"P c #EDAA52",
"I c #EEAB53",
"U c #EFAC53",
"Y c #F4AE53",
"T c #F9AE50",
"R c #F6B155",
"E c #F7B155",
"W c #F7B156",
"Q c #FBB357",
"! c #FDB455",
"~ c #FCB456",
"^ c #FDB456",
"/ c #FCB557",
"( c #FEB657",
") c #FBB658",
"_ c #FDB558",
"` c #FFB859",
"' c #FFBB5A",
"] c #FFBB5B",
"[ c #FFBC5C",
/* pixels */
"OOOOOOOOOOO@OOoO@O@O@OOO@OOOooO#@OOOOoOoOO.O@O@O",
"`mry33333Q_Q`L4U``)`~Q`_`~s966qQ~Qyy36665#.L`~``",
"jyyymDMBDNQ``RjVDBDDjxBFDBsr69u~PgyyyjjjL8.wHHjg",
"6ryyD`Q~Q2M`QQ~s12226932223172m`p6yyyQ~~)u 46566",
"`'````w7wyG'e7qyyqqw_``wqq7g```'``[Gyb97w4.1s6P`",
"998898*#*&:9-##;;#**898*###;9998988,::*##@.$&#89",
"...o..oo.X..XoXX XXX.  oooXXXXX.  .Xo.o..oooX...",
"2F`~_~~x16564wQs3332767R~)~Q~QP6682NQ`8.466481y3",
"DvjLHKDmyjHHjY`d0BDDtt0BvjjljQQjw79kDT,.gjlhlDmy",
"`w46663yy~`_`~~ww`~~y33394666P~)p6792y=oR`~!~~My",
"qR`~~Qmyywww*OOl_'9Oqts~~)w77ymmyy~~~`9.8dmmkww8",
"-9dgdu>><4*-oX.9dj* 4;<udd6--&<<<<dddl;X--><:---",
"X     ...X.XXoo.. .X..X.XXXX.XXX.X..X .XX.......",
"<dLzvvvLz<<<<2<<rvzvvu<<<<<<<<<<<<<<<lPlY8.:2<<<",
"sG~RRRRRYMmMtymym~QRRDmNmmb3yssmmmmysRRR`d.tMmm3",
"332666666QQ~qe`m23864j`_~~yyy3s~`~333666`u.l'~M3",
"GGYKPL7eP`YeqqgVGGNPPjpggeyyyDE~Pd91yYdth6.9gpvR",
"RYQ))G6d_Rp4664LQERRQg4655t33DQRw44qyRM15#.464g~",
".. . X..  .X  XX... X.......    ..X  X XX.   .. ",
"8>&:&;::99,&999999999,&&=#*-999998o$:;;&:&:89999",
"'BymmbyG[[Gy~````'`''Tbbuq7g``''`_o:miimyyi~```[",
"y333V`~~``__y3y87666693~QQs<6P```QX&iQ~__T3ym__~",
"YyyymGQRBDFBVmy87jjjgVFjjlykKR~FDM.,G!TMFmyysBR~",
"~m3333~M2322~T388`~)~~~6462N~QT233.9_Qm132y331BQ",
"O..X...X....ooXX.ooX...oXX.oo.o.X..ooOOOoOOOOoOo",
"X$&&,9898898;%&&;;:9888&;&;&&,8888*oXXX..X.XXXXX",
"o<bbG'`'[['`MiiisyG'''`mybsyb~')]_q*XoXOoXXXXooo",
"Qm33ys~~____~B33y397qq8RQ~!B33dwweR_Yyrr3>X>sRTY",
"d<<3sM~`~GGGTBmBMMdepq6PPvPvMMk*449gd<>><;.:tuY~",
"..O3Y`_`~3yy3B`)`~``'z67766p~`v.XXXXXXX..XXX..u`",
"oX.+$****$OO$$*$*****@OOOOOO$*$..oooXXXoX.X...O*",
"@$$$OO$$$$$$$OOoO@$$@$OO@O*$****#OOOOOO.+$*****@",
"33yyyy~~```_myy8w```'F3y3y~```~`p5666q*Xtm`_```~",
"Gmyyyy~QMMMM3yy87ekMMDTTmygepkD`YLPh0q*X1mMMMMR`",
"Yy2112QM33yyyyy0q7rb1M~~M387q1y~~~~B38*.1yy333MR",
"oO.o.Oyms3G'['`''``~myymbm~``Miiiiisyb:o~`'Bbm;X",
"o.XXXo&&=;:988989988;&&&;;888:;%%%;;;;@.898:%&O.",
"OoXOXOX.XooXXXXXXX.X.ooo.....XX.XoXX ooo.X.oo.oO",
"~y123133yQQ~)~~~~~~~QQR333333yy3DR7#X396~~~__~~~",
"FDDDDBDmyBxj~QjKjjvDDE`BBDDBDiy3G_L;.3t6HhjHlMDD",
"tE`)~~~N2y96RP6666933MQQ___~~MyyV~`9.19665668y22",
"m97qqw7L`_'``'```'``mmmwqqqj`Myy9qw-.Ooo.8[```Dy",
":*#*#**69999w8999999&:&**##49:;:**-O.oXX $0999,&",
"..XXXXo. X. . .     ....XoXX XXXXo.X.Oooo.  ....",
"5lQGREYk1t12Rd dQTYETk11844wYTYYRTYYTYk<5*.-8184",
"9lUPPY)GmyyyY9.qvGYP`GmMke9dTPUUUYUYTTDMd6.8gyt8",
"yq5666~Q!yyy64o.O386~)```Qs3y8666659y2D``g v~yyy",
"8HYYYY~Pwyy3$oo.$TRYewwwdmyyyPYYUYYxy89we5.vE3yy"
};
